<svg width="721" height="162" viewBox="0 0 721 162" fill="none" xmlns="http://www.w3.org/2000/svg">
<path d="M272.967 161.798C269.194 161.225 265.962 159.637 263.425 156.725C261.628 154.657 260.353 152.274 259.547 149.689C256.463 139.777 250.891 131.281 244.637 123.155C239.084 115.934 233.217 108.959 228.045 101.442C223.268 94.4979 219.131 87.2151 216.509 79.1627C215.653 76.5402 214.963 73.8622 214.108 71.2335C213.363 68.9557 213.153 68.9187 211.27 70.4086C208.696 72.4463 206.726 75.0196 204.873 77.6852C202.325 81.3605 200.016 85.1897 197.412 88.8219C192.622 95.5199 186.429 100.648 179.423 104.84C174.092 108.023 168.749 111.206 162.962 113.508C158.714 115.201 154.337 115.792 149.837 114.555C145.601 113.391 142.283 110.855 139.463 107.58C136.933 104.643 134.938 101.344 132.938 98.0439C126.074 86.698 116.544 78.3562 104.551 72.7664C104.083 72.5511 103.339 72.5139 103.56 71.6213C103.757 70.7964 104.071 70.4147 105.038 70.6487C112.794 72.5201 119.893 75.8138 126.424 80.3878C132.156 84.4017 136.927 89.3821 141.23 94.855C143.212 97.3729 145.256 99.8415 147.787 101.867C150.865 104.329 154.109 104.625 157.63 102.932C160.905 101.356 163.824 99.2074 166.84 97.219C170.349 94.9104 173.735 92.4356 176.942 89.7207C181.332 85.9961 184.552 81.3728 187.34 76.4047C190.08 71.529 192.77 66.6163 196.335 62.2577C198.379 59.7583 200.699 57.5728 203.297 55.6582C211.559 49.5635 220.683 51.5274 226.673 58.7363C228.593 61.0449 230.065 63.6736 230.822 66.5547C234.017 78.7318 240.616 89.0496 248.109 98.9242C252.56 104.797 257.072 110.627 261.221 116.722C265.666 123.254 269.612 130.062 272.389 137.493C272.432 137.61 272.5 137.721 272.647 138.035C273.017 134.169 273.398 130.524 273.712 126.874C274.131 122.022 274.537 117.165 274.894 112.302C275.159 108.7 275.375 105.093 275.553 101.485C275.867 95.1197 276.132 88.748 276.267 82.3701C276.329 79.5013 276.397 76.651 276.169 73.7883C275.873 70.1007 274.217 67.1027 271.607 64.554C268.486 61.5005 265.322 58.4901 262.927 54.7779C260.772 51.4473 258.821 47.9875 257.195 44.3923C251.372 31.5073 241.405 23.2764 228.44 18.2714C220.861 15.3472 213.012 13.488 205.027 12.1644C195.916 10.6561 186.737 9.99123 177.515 10.3483C166.963 10.7546 156.522 12.0166 146.383 15.1625C140.319 17.0401 135.511 20.5369 131.947 25.8251C129.564 29.3588 127.114 32.8617 124.147 35.9521C119.191 41.1172 113.096 44.0291 106.066 45.1557C98.8754 46.3069 91.7895 45.4818 84.7222 44.2138C79.9572 43.358 75.2231 42.3299 70.3966 41.899C64.4743 41.3757 58.7736 42.0959 53.4608 45.0633C50.0379 46.9718 46.6027 48.9048 42.8844 50.2038C31.9878 54.0083 22.0578 51.8844 13.199 44.8294C5.79302 38.9317 1.90843 30.8855 0.190843 21.7004C0.0923588 21.1648 0.221655 20.6046 0 20.0813V19.4657C0.0492609 19.0963 0.0984853 18.7269 0.153908 18.3576C0.412462 16.6831 0.985002 15.1809 2.55484 14.2821C2.8811 14.0972 3.33053 13.7219 3.63218 14.2145C3.8969 14.6515 4.34631 15.2671 3.94 15.7227C2.54253 17.2926 3.03503 18.9794 3.546 20.6477C4.04465 22.2791 4.81418 23.812 5.62065 25.3203C9.1297 31.8644 13.79 37.2819 20.7712 40.2492C27.4322 43.0811 34.0378 43.1057 40.4157 39.338C42.5581 38.0699 44.6758 36.7463 46.7382 35.3611C53.6332 30.7316 61.2053 28.5092 69.5162 28.6016C75.0261 28.6632 80.4559 29.408 85.8857 30.1714C91.297 30.9348 96.7145 31.5135 102.187 30.8732C106.669 30.35 110.597 28.6939 113.687 25.2649C116.051 22.6485 118.083 19.7797 120.164 16.9478C125.587 9.54803 132.735 4.75846 141.612 2.50528C147.627 0.978568 153.758 0.393709 159.933 0.14128C160.881 0.103705 161.841 0.276552 162.783 0H167.905C168.139 0.0432113 168.367 0.123249 168.601 0.123249C181.56 0.350953 194.235 2.54879 206.757 5.70697C216.89 8.26177 226.87 11.303 236.24 16.0433C242.87 19.3984 248.872 23.6154 253.902 29.1376C257.257 32.819 259.83 37.0422 262.324 41.3208C264.521 45.0946 266.719 48.8683 269.557 52.2235C271.736 54.8029 274.414 56.816 277.012 58.9092C282.27 63.1385 284.905 68.7222 285.686 75.2847C286.394 81.244 286.807 87.2217 287.164 93.2117C287.459 98.149 287.632 103.086 287.798 108.024C288.001 113.927 288.007 119.825 287.878 125.723C287.712 133.357 287.324 140.984 286.69 148.593C286.48 151.056 285.945 153.444 284.683 155.618C282.688 159.053 279.752 161.103 275.793 161.644C275.664 161.663 275.535 161.724 275.406 161.761H272.949L272.967 161.798Z" fill="#602483"/>
<path d="M721 120.84C719.498 123.795 717.848 126.646 715.613 129.139C711.519 133.707 706.422 136.163 700.327 136.687C693.845 137.247 687.658 135.782 681.502 134.076C674.797 132.217 668.272 129.773 661.543 128C657.517 126.941 653.448 126.147 649.261 125.981C643.148 125.741 637.977 127.785 633.606 132.026C632.264 133.331 630.817 134.532 629.42 135.788C622.765 141.802 613.703 139.272 609.658 132.759C607.553 129.373 606.395 125.648 605.46 121.825C605.275 121.062 605.14 120.293 604.936 119.535C604.659 118.501 604.173 118.323 603.317 118.994C601.957 120.052 600.978 121.468 599.937 122.817C597.395 126.11 594.976 129.502 592.014 132.451C590.949 133.516 589.78 134.446 588.518 135.271C585.267 137.382 582.146 136.108 580.176 133.879C578.859 132.39 578.144 130.573 577.578 128.702C577.03 126.874 576.556 125.021 576.002 123.198C575.774 122.453 575.473 121.721 575.134 121.019C574.561 119.831 573.687 118.938 572.333 118.686C571.662 118.563 571.588 118.212 571.773 117.664C572 116.98 572.302 116.334 572.678 115.718C574.709 112.363 577.079 109.291 580.355 107.05C583.784 104.699 586.874 105.764 588.198 109.722C588.672 111.144 588.979 112.616 589.38 114.062C589.57 114.752 589.767 115.441 590.032 116.106C591.331 119.363 594.809 120.348 597.666 118.273C599.051 117.27 599.987 115.885 600.873 114.463C602.326 112.117 603.459 109.568 605.158 107.377C606.26 105.955 607.504 104.705 609.4 104.385C611.29 104.065 612.293 104.538 613.1 106.293C614.442 109.211 615.864 112.08 617.587 114.795C619.724 118.162 622.106 121.302 625.658 123.328C626.828 123.992 628.084 124.405 629.407 124.627C631.1 124.91 632.559 124.337 633.938 123.42C636.82 121.499 639.257 119.049 641.886 116.82C644.835 114.321 647.895 112 651.385 110.276C657.03 107.488 662.854 107.383 668.813 109.045C673.671 110.399 678.202 112.536 682.708 114.74C687.732 117.196 692.681 119.818 698.043 121.511C701.171 122.496 704.372 122.995 707.629 122.527C711.63 121.955 714.788 119.837 717.38 116.802C718.223 115.817 718.716 115.811 719.578 116.783C720.298 117.596 720.551 118.648 721 119.597V120.828V120.84Z" fill="#602483"/>
<path d="M464.771 110.541C463.62 111.945 462.623 113.114 461.373 114.019C460.874 114.376 460.382 114.844 459.822 114.98C458.344 115.331 457.796 116.389 457.211 117.651C454.306 123.906 450.255 129.293 444.653 133.411C441.741 135.548 438.533 137.074 434.877 137.235C428.788 137.499 424.134 134.273 422.761 128.314C422.699 128.05 422.619 127.791 422.527 127.446C421.967 127.68 421.585 128.111 421.16 128.468C418.956 130.309 416.703 132.076 414.247 133.572C408.171 137.265 403.72 136.877 398.271 132.254C394.972 129.453 392.349 126.036 389.53 122.798C388.815 121.979 388.064 121.173 387.264 120.44C385.953 119.246 385.146 119.209 383.749 120.311C382.185 121.542 380.911 123.063 379.667 124.602C377.63 127.12 375.69 129.724 373.536 132.149C372.421 133.405 371.258 134.606 369.854 135.535C367.355 137.191 364.375 136.391 363.015 133.707C362.048 131.799 361.943 129.712 361.82 127.631C361.709 125.729 361.95 123.808 361.617 121.912C361.519 121.358 361.457 120.779 360.86 120.57C360.306 120.379 359.881 120.766 359.493 121.099C358.44 121.992 357.665 123.118 356.895 124.245C355.399 126.443 354.026 128.733 352.407 130.844C351.533 131.983 350.597 133.073 349.397 133.886C347.581 135.123 346.442 134.944 345.1 133.221C343.776 131.522 342.736 129.632 341.634 127.785C340.206 125.384 338.839 122.934 337.14 120.705C336.709 120.139 336.216 119.609 335.773 119.049C335.293 118.446 334.936 118.415 334.48 119.135C333.052 121.388 331.427 123.494 329.648 125.476C325.554 130.025 320.93 133.848 314.971 135.714C310.963 136.97 306.913 137.074 302.88 135.843C297.937 134.335 294.859 130.29 294.416 125.15C293.911 119.277 295.45 113.859 297.875 108.632C300.578 102.803 304.192 97.6313 309.283 93.6113C312.207 91.3088 315.414 89.6343 319.262 89.6589C322.488 89.6852 323.855 91.3088 323.676 94.5039C323.467 98.2838 322.008 101.571 320.025 104.686C317.151 109.193 313.617 113.182 310.015 117.103C309.4 117.774 309.369 118.175 309.929 118.883C314.232 124.282 322.162 125.014 327.444 120.459C328.712 119.363 329.838 118.125 330.885 116.82C331.026 116.642 331.218 116.408 331.211 116.211C331.168 114.918 331.864 113.921 332.516 112.942C334.973 109.254 337.872 105.955 341.387 103.24C344.158 101.097 345.537 101.282 347.784 104.009C349.698 106.336 351.2 108.946 352.82 111.47C353.614 112.708 354.414 113.939 355.411 115.023C356.993 116.74 357.942 116.771 359.628 115.176C361.371 113.526 362.75 111.563 364.307 109.753C365.464 108.404 366.653 107.087 368.099 106.034C371.134 103.818 374.52 104.778 375.942 108.269C376.884 110.578 376.97 113.052 377.266 115.484C377.34 116.094 377.395 116.703 377.512 117.306C377.765 118.636 378.399 118.913 379.519 118.162C380.609 117.436 381.458 116.451 382.32 115.478C384.358 113.176 386.205 110.719 388.335 108.503C389.283 107.518 390.249 106.558 391.376 105.776C393.42 104.36 394.823 104.372 396.787 105.874C399.034 107.592 400.715 109.845 402.562 111.944C405.049 114.764 407.505 117.602 410.583 119.812C412.64 121.289 414.862 122.342 417.454 122.447C419.067 122.508 420.538 121.997 422.028 121.486C422.563 121.302 422.6 120.877 422.711 120.452C424.127 115.01 426.793 110.282 430.831 106.354C432.826 104.415 435.048 102.888 437.905 102.55C438.348 102.495 438.576 102.267 438.588 101.817C438.742 96.9723 442.996 94.4667 447.896 95.1008C453.135 95.778 456.226 98.93 458.22 103.498C458.657 104.495 459.021 105.529 459.347 106.57C459.63 107.469 460.209 107.66 461.009 107.395C462.234 106.988 463.312 106.2 464.623 105.985C464.992 105.924 464.992 105.542 464.992 105.228C464.992 101.848 465.207 98.4805 465.423 95.1131C465.688 91.0315 466.002 86.9561 466.328 82.8806C466.421 81.7541 466.451 81.7294 465.368 82.1542C458.7 84.7768 452.113 87.5963 445.717 90.8407C445.2 91.1052 444.677 91.3701 444.129 91.5487C442.731 92.0165 441.826 91.7147 441.131 90.3974C439.542 87.3993 439.998 85.0292 443.501 83.5517C448.179 81.5755 452.907 79.704 457.617 77.7956C460.529 76.6198 463.441 75.4501 466.365 74.3173C467.098 74.034 467.381 73.6032 467.492 72.8213C468.249 67.5516 469.129 62.3065 471.155 57.3384C471.684 56.0333 472.355 54.8082 473.322 53.774C475.187 51.7916 477.225 52.1056 478.327 54.5866C479.312 56.809 479.527 59.2038 479.632 61.5862C479.724 63.6609 479.662 65.7479 479.662 67.8287C479.662 69.1338 479.654 69.1399 480.924 68.6659C487.376 66.2465 493.84 63.8579 500.39 61.7155C505.186 60.1457 509.987 58.5635 515.005 57.8309C517.566 57.4556 520.145 57.1168 522.718 57.7693C525.082 58.3665 526.461 59.9363 526.572 61.9679C526.634 63.1068 526.24 64.024 525.267 64.5596C521.82 66.4496 518.268 68.0933 514.5 69.2446C513.804 69.4538 513.109 69.3922 512.45 68.9488C511.194 68.1054 509.809 67.9269 508.344 68.284C498.568 70.7034 488.982 73.7384 479.44 76.9273C478.812 77.1366 478.541 77.506 478.43 78.1709C477.729 82.351 476.984 86.5619 475.008 90.3295C473.715 92.7919 473.678 95.2114 473.863 97.8216C474.115 101.398 474.435 104.963 475.383 108.429C476.436 112.283 478.036 115.829 481.355 118.31C485.369 121.308 492.245 122.41 497.349 118.605C497.921 118.18 498.149 117.718 498.217 117.004C498.715 111.876 499.713 106.883 502.329 102.346C502.84 101.46 503.431 100.61 504.367 100.093C505.315 99.5637 506.035 99.8286 506.361 100.863C506.601 101.614 506.657 102.396 506.663 103.184C506.689 106.988 507.396 110.645 509.033 114.092C510.991 118.205 514.032 120.963 518.717 121.523C522.152 121.935 525.243 120.889 528.185 119.202C529.694 118.334 530.919 117.041 532.544 116.346C532.944 116.173 533.043 115.711 533.215 115.348C535.019 111.55 537.315 108.102 540.584 105.387C542.338 103.928 544.253 102.777 546.592 102.537C547.079 102.488 547.337 102.254 547.337 101.749C547.326 97.686 550.822 94.4294 556.35 95.045C562.088 95.6791 565.283 99.2559 567.265 104.286C567.542 104.981 567.751 105.708 568.01 106.409C568.416 107.524 568.835 107.721 569.968 107.29C570.54 107.074 571.082 106.773 571.642 106.52C572.332 106.206 573.04 105.978 573.815 106.028C574.763 106.083 575.145 106.563 574.985 107.518C574.88 108.133 574.659 108.712 574.32 109.223C572.553 111.95 570.534 114.419 567.296 115.496C566.748 115.681 566.625 116.124 566.44 116.555C563.541 123.179 559.41 128.861 553.598 133.232C550.6 135.485 547.282 137.049 543.471 137.24C536.983 137.566 532.094 133.448 531.196 126.977C531.152 126.651 531.3 126.177 530.943 126.048C530.531 125.906 530.34 126.399 530.081 126.639C526.049 130.326 521.69 133.528 516.525 135.455C512.462 136.969 508.436 137.031 504.619 134.685C501.713 132.906 500.02 130.191 498.974 127.02C498.881 126.744 498.936 126.3 498.61 126.226C498.235 126.146 498.093 126.59 497.859 126.823C492.817 131.81 487 135.381 479.791 135.922C474.761 136.304 470.877 134.063 468.34 129.655C466.222 125.968 465.453 121.898 465.022 117.725C464.782 115.416 464.85 113.101 464.819 110.528L464.771 110.541ZM547.413 104.329C546.791 104.945 546.545 105.321 546.194 106.343C544.765 110.516 545.375 114.37 547.93 117.972C551.032 122.349 555.81 122.17 559.62 119.911C560.796 119.215 561.59 118.138 562.009 116.814C562.169 116.309 562.107 115.971 561.43 115.965C560.716 115.957 560.002 115.879 559.294 115.768C554.252 115.011 550.448 112.56 548.361 107.765C547.887 106.675 547.683 105.505 547.406 104.33L547.413 104.329ZM438.7 104.206C438.453 104.532 438.299 104.705 438.182 104.902C437.998 105.228 437.801 105.554 437.678 105.899C436.12 110.128 436.526 114.118 439.167 117.83C441.359 120.914 444.277 122.096 447.983 121.16C450.372 120.557 452.336 119.4 453.278 116.968C453.518 116.34 453.462 115.94 452.619 115.952C451.942 115.964 451.258 115.866 450.587 115.761C446.056 115.072 442.43 113.01 440.196 108.86C439.438 107.45 439.038 105.911 438.7 104.2V104.206ZM306.193 108.054C306.26 109.445 306.353 110.806 306.673 112.135C306.833 112.806 306.778 113.841 307.436 114.019C308.132 114.204 308.723 113.379 309.215 112.831C311.61 110.172 313.162 107.057 314.14 103.634C314.436 102.599 314.461 101.559 314.263 100.506C314.011 99.1704 313.291 98.5363 311.936 98.5794C309.966 98.647 308.649 99.7367 307.713 101.374C306.525 103.455 306.34 105.764 306.187 108.06L306.193 108.054Z" fill="#602483"/>
<path d="M514.717 80.8803C514.655 84.3216 513.325 87.0612 510.21 88.6064C505.581 90.9027 500.206 87.8492 499.388 82.5794C498.969 79.8707 499.468 77.3836 501.234 75.2781C505.033 70.7595 511.848 71.9168 514.039 77.4205C514.267 77.9869 514.452 78.584 514.569 79.1812C514.68 79.7475 514.674 80.3324 514.717 80.8803Z" fill="#602483"/>
</svg>
