<svg width="286" height="300" viewBox="0 0 286 300" fill="none" xmlns="http://www.w3.org/2000/svg">
<path d="M191.439 164.515C189.749 165.075 184.459 167.335 184.459 167.335C183.189 165.435 178.469 166.065 178.469 166.065L173.679 163.885C173.679 163.885 172.479 152.615 169.869 145.915C167.259 139.225 161.699 127.315 161.699 127.315C162.399 123.365 158.459 112.735 156.349 102.725C154.239 92.7254 148.179 86.3754 140.849 85.3254C133.519 84.2654 128.099 89.3454 124.859 92.0154C121.619 94.6954 114.859 100.685 112.249 102.235C109.639 103.785 105.489 109.845 105.489 109.845C104.079 109.985 100.489 114.425 99.0088 114.285C97.5288 114.146 95.1388 111.535 94.9888 110.975C94.8489 110.415 91.5388 106.255 90.8988 105.765C90.2588 105.275 88.4288 106.115 87.7988 106.115C87.1688 106.115 85.2588 103.785 85.2588 103.785C89.0588 104.845 90.6788 100.265 91.6688 97.4454C92.6588 94.6254 94.6288 90.8254 96.3188 88.5654C98.0088 86.3154 99.7688 79.1954 100.759 75.0354C101.749 70.8754 107.809 53.4754 108.509 51.3254C109.209 49.1754 108.789 43.3654 108.689 41.8154C108.579 40.2654 106.259 39.4554 106.259 39.4554C108.509 33.6754 114.039 34.1754 114.039 34.1754C117.069 27.2354 125.839 17.5154 125.839 17.5154V15.6854L121.859 15.5754L120.489 14.9054L117.389 17.5454C117.389 17.5454 116.119 17.1254 115.629 17.5152C115.139 17.9052 114.959 19.2052 114.959 19.2052L113.939 20.1952L112.039 20.3052C112.039 20.3052 112.288 21.3652 111.619 21.8952C110.949 22.4252 110.069 21.2952 110.069 21.2952L109.079 22.2152C109.079 22.2152 109.189 23.5852 108.979 24.0852C108.768 24.5752 107.528 23.5952 107.528 23.5952L106.368 24.6152C106.368 24.6152 106.198 25.8152 105.879 26.2052C105.558 26.5952 104.438 25.7852 104.438 25.7852L103.658 26.5552C103.658 26.5552 103.589 27.9652 102.988 28.3852C102.388 28.8052 101.368 28.2752 101.368 28.2752L100.488 29.7952C102.498 31.1652 101.898 32.9653 101.898 32.9653L101.338 32.7853L100.038 34.8453L100.618 35.4753L79.7485 73.7854L74.8885 67.4053C74.8885 67.4053 74.7086 65.5354 74.5385 64.6253C74.3586 63.7053 72.6685 61.6353 72.1085 60.6854C71.5485 59.7353 66.1585 53.0753 65.5585 53.0753C64.9585 53.0753 60.7985 51.9153 58.8685 51.1354C56.9285 50.3553 52.0385 50.5354 52.0385 50.5354L49.6085 46.9054C49.6085 46.9054 52.7085 44.9654 54.7485 43.0254C56.7885 41.0853 58.4785 36.4753 59.8185 34.7454C61.1585 33.0154 63.0585 32.0653 64.5085 30.1653C65.9485 28.2654 67.3285 24.0353 67.6085 22.2753C67.8885 20.5153 66.6885 13.3254 65.7085 11.1054C64.7185 8.88537 61.4785 5.04534 57.6385 2.54533C53.7985 0.0453281 48.5885 2.96535 48.5885 2.96535C50.9885 0.635349 53.4885 0.675352 53.4885 0.675352C50.3885 0.00535473 47.9885 2.22538 47.9885 2.22538C47.9583 0.675353 51.3385 0.00535856 51.3385 0.00535856C46.7185 -0.174547 43.7285 4.23535 43.7285 4.23535C44.1885 2.26535 46.5485 0.0453534 46.5485 0.0453534C43.9085 1.17536 42.7785 4.30537 42.7785 4.30537C41.9685 2.68535 39.8885 2.15533 39.8885 2.15533C41.5485 2.92534 41.0485 4.05533 41.0485 4.05533C39.0385 2.32533 37.4585 2.85534 37.4585 2.85534C39.8185 3.31535 40.0285 4.36534 40.0285 4.36534C37.8485 3.58536 36.0485 4.4054 36.0485 4.4054C38.5485 3.98538 39.6385 5.60542 39.6385 5.60542C39.6385 5.60542 38.4085 5.7853 37.7385 5.67531C37.0685 5.56533 33.1585 5.95539 33.1585 5.95539L35.5885 6.87539L33.1885 7.54538L35.1985 7.65539L33.3685 9.10538L34.4285 9.21539L31.9285 11.5754L35.4485 9.31539L31.8885 13.9354H33.1885C33.1885 13.9354 30.6885 17.1054 30.2985 18.0954C29.9085 19.0854 29.2085 21.9754 29.0985 24.5454C28.9885 27.1154 27.8685 28.3154 27.6185 29.4454C27.3687 30.5754 28.8485 30.4354 28.8185 31.1754C28.7784 31.9154 27.0185 37.1654 27.0185 37.1654C20.5385 36.5354 21.5985 43.9254 21.5985 43.9254C21.5985 43.9254 20.8185 46.6754 20.5385 47.5854C20.2584 48.5054 17.5785 50.4054 15.8885 51.6054C14.1985 52.8054 7.2185 59.2154 6.02848 60.2754C4.82848 61.3354 1.51848 67.8154 1.37848 70.1354C1.23864 72.4554 0.318479 84.5054 0.0384915 86.5554C-0.241572 88.5954 1.0985 89.0954 1.0985 89.0954L1.30864 92.9654V112.625C1.30864 117.975 6.23862 122.915 6.87864 122.705C7.50861 122.495 10.8186 122.846 15.5486 124.675C20.2686 126.505 27.0286 126.085 27.0286 126.085L27.5886 129.965C19.1386 138.065 20.8986 148.285 29.8486 155.395C38.7986 162.515 49.4386 164.555 49.4386 164.555C49.4386 164.555 53.3086 183.575 53.8786 189.145C54.4386 194.715 56.8386 209.935 56.4187 211.835C55.9986 213.735 54.4487 219.655 53.1787 228.535C51.9086 237.415 50.9286 255.515 50.5686 259.885C50.2186 264.255 44.5086 271.515 44.3686 274.325C44.2284 277.145 47.5387 284.545 48.3886 285.735C49.2386 286.935 51.0686 289.255 51.0686 289.255C51.0686 289.255 50.7886 293.135 52.1286 295.875C53.4686 298.625 58.7486 299.535 64.0386 299.535C69.3286 299.535 70.7986 296.715 70.9386 294.535C71.0785 292.355 69.4586 287.065 69.4586 286.015C69.4586 284.965 71.4986 283.405 72.2086 281.295C72.9086 279.185 68.7586 277.915 69.5986 276.295C70.4486 274.675 72.7686 278.475 74.5986 274.955C76.4286 271.435 72.4886 267.555 72.4886 267.555L72.8386 264.595C72.8386 264.595 76.6386 256.565 78.1186 250.365C79.5986 244.165 80.7986 216.335 81.0786 204.495C81.3587 192.655 89.9586 156.865 89.9586 156.865C112.999 148.835 132.299 123.685 132.299 123.685L134.129 127.275L149.559 186.315C149.559 186.315 149.489 188.635 151.959 188.995C154.429 189.345 155.979 187.585 156.679 187.165C157.379 186.745 164.289 185.055 168.379 183.505C172.469 181.955 181.479 180.545 186.419 179.275C191.349 178.005 197.829 171.805 197.969 168.845C198.108 165.885 193.179 163.985 191.489 164.545L191.439 164.515ZM15.1588 108.225C15.1588 108.225 15.5288 105.425 16.6888 103.415C17.8488 101.405 17.9088 96.3354 17.9088 96.3354L19.5488 97.2855C19.4388 101.245 24.8888 109.645 24.8888 109.645L25.1488 113.235L15.1588 108.215L15.1588 108.225ZM96.4288 58.7654C96.4288 58.7654 92.9388 69.7054 91.1488 73.9354C89.3488 78.1654 84.2788 83.6555 84.2788 83.6555L96.4288 58.7654Z" fill="#602483"/>
<path d="M125.229 212.521C126.271 212.142 127.353 212.088 128.474 212.362C129.615 212.627 130.652 213.169 131.586 213.987C132.519 214.805 133.216 215.846 133.675 217.109C134.128 218.352 134.259 219.587 134.07 220.813C133.881 222.04 133.438 223.132 132.742 224.089C132.059 225.019 131.196 225.673 130.154 226.053L124.621 228.066L124.725 227.416L126.99 233.64C127.18 234.162 127.18 234.661 126.991 235.138C126.794 235.596 126.435 235.92 125.914 236.109C125.413 236.292 124.94 236.271 124.495 236.047C124.043 235.803 123.722 235.42 123.532 234.899L117.206 217.518C117.017 216.997 117.03 216.504 117.247 216.039C117.476 215.547 117.852 215.206 118.373 215.016L125.229 212.521ZM128.906 222.625C129.287 222.486 129.6 222.191 129.844 221.739C130.088 221.287 130.239 220.766 130.297 220.177C130.348 219.569 130.271 218.984 130.067 218.422C129.855 217.841 129.538 217.343 129.115 216.93C128.692 216.516 128.246 216.225 127.775 216.055C127.298 215.866 126.868 215.841 126.488 215.979L120.895 218.015L121.058 217.342L123.849 225.01L123.343 224.649L128.906 222.625ZM143.822 229.591C143.301 229.781 142.808 229.768 142.343 229.551C141.871 229.314 141.54 228.935 141.35 228.414L136.83 215.995C136.64 215.474 136.654 214.981 136.87 214.516C137.08 214.031 137.445 213.694 137.966 213.504C138.488 213.314 138.984 213.338 139.457 213.574C139.921 213.791 140.249 214.16 140.438 214.681L141.467 217.508L140.523 215.57C140.569 215.009 140.696 214.485 140.906 214.001C141.128 213.488 141.416 213.032 141.769 212.631C142.115 212.209 142.517 211.848 142.974 211.545C143.432 211.242 143.911 211 144.412 210.817C145.014 210.598 145.577 210.586 146.102 210.781C146.647 210.969 147.003 211.293 147.171 211.754C147.412 212.416 147.417 212.959 147.185 213.384C146.947 213.788 146.627 214.064 146.226 214.21C145.845 214.348 145.469 214.406 145.097 214.382C144.745 214.351 144.369 214.409 143.968 214.555C143.607 214.686 143.269 214.911 142.954 215.23C142.651 215.522 142.405 215.907 142.216 216.384C142.047 216.854 141.96 217.397 141.957 218.011C141.966 218.598 142.102 219.252 142.365 219.974L144.958 227.1C145.148 227.622 145.138 228.125 144.929 228.61C144.712 229.074 144.343 229.402 143.822 229.591ZM167.065 212.039C167.663 213.683 167.821 215.272 167.539 216.804C167.27 218.31 166.641 219.64 165.654 220.794C164.686 221.941 163.441 222.791 161.917 223.346C160.394 223.9 158.883 224.053 157.385 223.804C155.906 223.547 154.57 222.932 153.376 221.959C152.195 220.959 151.305 219.637 150.707 217.993C150.108 216.349 149.944 214.775 150.213 213.269C150.495 211.736 151.12 210.396 152.087 209.25C153.068 208.076 154.319 207.211 155.843 206.657C157.367 206.102 158.871 205.963 160.357 206.24C161.855 206.489 163.195 207.114 164.376 208.114C165.57 209.087 166.466 210.396 167.065 212.039ZM163.456 213.353C163.084 212.33 162.553 211.525 161.862 210.936C161.183 210.321 160.417 209.93 159.562 209.764C158.727 209.591 157.889 209.658 157.047 209.965C156.205 210.271 155.51 210.762 154.961 211.439C154.433 212.108 154.097 212.9 153.953 213.815C153.822 214.702 153.943 215.658 154.315 216.68C154.68 217.682 155.201 218.491 155.879 219.107C156.57 219.696 157.333 220.076 158.168 220.249C159.023 220.415 159.871 220.344 160.713 220.038C161.555 219.732 162.24 219.244 162.769 218.575C163.317 217.898 163.657 217.116 163.788 216.229C163.932 215.314 163.821 214.355 163.456 213.353ZM173.856 200.101C174.698 199.794 175.517 199.644 176.313 199.649C177.11 199.654 177.832 199.766 178.479 199.985C179.146 200.196 179.696 200.461 180.13 200.78C180.577 201.071 180.851 201.357 180.953 201.638L180.314 202.313L179.515 200.118C179.325 199.597 179.339 199.104 179.556 198.639C179.765 198.154 180.13 197.817 180.652 197.627C181.173 197.438 181.666 197.451 182.131 197.668C182.595 197.885 182.926 198.264 183.123 198.805L187.994 212.186C188.629 213.93 188.755 215.462 188.372 216.782C188.017 218.114 187.312 219.233 186.257 220.14C185.21 221.066 183.984 221.784 182.581 222.295C182.18 222.441 181.64 222.581 180.962 222.714C180.284 222.847 179.629 222.949 178.997 223.021C178.364 223.092 177.876 223.122 177.531 223.111C176.835 223.07 176.294 222.892 175.907 222.579C175.548 222.278 175.359 221.882 175.338 221.389C175.307 220.742 175.452 220.236 175.773 219.869C176.101 219.523 176.514 219.35 177.014 219.349C177.236 219.337 177.611 219.337 178.137 219.349C178.664 219.362 179.224 219.34 179.816 219.283C180.436 219.239 180.956 219.141 181.377 218.987C182.88 218.44 183.884 217.734 184.386 216.87C184.889 216.006 184.947 215.043 184.56 213.981L183.608 211.364L184.068 211.504C184.162 211.764 184.139 212.136 183.997 212.619C183.868 213.075 183.628 213.571 183.278 214.107C182.949 214.635 182.51 215.147 181.964 215.641C181.41 216.115 180.772 216.483 180.05 216.746C178.627 217.264 177.216 217.38 175.818 217.094C174.413 216.789 173.153 216.135 172.039 215.132C170.918 214.11 170.062 212.787 169.471 211.164C168.873 209.52 168.678 207.956 168.887 206.472C169.089 204.969 169.624 203.662 170.491 202.551C171.351 201.421 172.472 200.604 173.856 200.101ZM175.631 203.2C174.729 203.529 174.017 204.038 173.496 204.727C172.975 205.416 172.663 206.211 172.559 207.111C172.456 208.011 172.579 208.943 172.929 209.905C173.272 210.847 173.773 211.63 174.431 212.253C175.089 212.876 175.839 213.284 176.681 213.477C177.523 213.67 178.395 213.602 179.297 213.274C180.22 212.938 180.941 212.426 181.462 211.737C181.983 211.048 182.296 210.253 182.399 209.353C182.503 208.452 182.383 207.531 182.04 206.589C181.69 205.626 181.186 204.834 180.528 204.211C179.87 203.587 179.119 203.179 178.277 202.986C177.435 202.793 176.553 202.865 175.631 203.2ZM194.125 211.283C193.604 211.472 193.111 211.459 192.646 211.242C192.174 211.005 191.843 210.626 191.653 210.105L187.133 197.686C186.943 197.165 186.957 196.672 187.173 196.207C187.383 195.722 187.748 195.385 188.269 195.195C188.791 195.005 189.287 195.029 189.759 195.266C190.224 195.482 190.552 195.851 190.741 196.373L191.77 199.199L190.826 197.261C190.872 196.7 190.999 196.177 191.209 195.692C191.431 195.18 191.719 194.723 192.072 194.322C192.418 193.901 192.82 193.539 193.277 193.236C193.735 192.933 194.214 192.691 194.715 192.508C195.317 192.29 195.88 192.278 196.405 192.472C196.95 192.66 197.306 192.984 197.474 193.445C197.715 194.107 197.72 194.65 197.488 195.075C197.25 195.48 196.93 195.755 196.529 195.901C196.148 196.039 195.772 196.097 195.4 196.073C195.048 196.042 194.672 196.1 194.271 196.246C193.91 196.377 193.572 196.602 193.257 196.921C192.954 197.213 192.708 197.598 192.519 198.075C192.349 198.546 192.263 199.088 192.26 199.702C192.269 200.289 192.405 200.943 192.667 201.665L195.261 208.792C195.451 209.313 195.441 209.816 195.232 210.301C195.015 210.766 194.646 211.093 194.125 211.283ZM212.212 186.14C212.734 185.95 213.227 185.964 213.691 186.181C214.156 186.397 214.487 186.776 214.684 187.318L219.314 200.037C219.503 200.559 219.494 201.062 219.284 201.546C219.067 202.011 218.698 202.339 218.177 202.528C217.656 202.718 217.163 202.704 216.698 202.488C216.226 202.251 215.895 201.872 215.705 201.351L215.169 199.877L215.929 199.907C216.024 200.168 216 200.54 215.858 201.023C215.709 201.486 215.459 201.985 215.11 202.521C214.76 203.057 214.302 203.576 213.735 204.077C213.181 204.551 212.523 204.927 211.761 205.204C210.378 205.707 208.998 205.813 207.62 205.52C206.234 205.207 204.985 204.549 203.871 203.547C202.77 202.517 201.923 201.191 201.332 199.567C200.734 197.923 200.53 196.363 200.719 194.887C200.921 193.383 201.445 192.08 202.292 190.977C203.132 189.854 204.224 189.048 205.567 188.559C206.429 188.245 207.268 188.087 208.085 188.085C208.901 188.083 209.643 188.188 210.31 188.399C210.997 188.603 211.558 188.864 211.992 189.183C212.438 189.474 212.713 189.761 212.815 190.041L211.875 190.826L211.076 188.631C210.886 188.11 210.9 187.617 211.116 187.152C211.326 186.667 211.691 186.33 212.212 186.14ZM211.009 201.732C211.891 201.411 212.582 200.91 213.083 200.228C213.584 199.546 213.876 198.759 213.96 197.865C214.064 196.965 213.944 196.044 213.601 195.102C213.251 194.139 212.747 193.347 212.089 192.723C211.45 192.093 210.72 191.678 209.898 191.477C209.076 191.277 208.224 191.338 207.342 191.659C206.48 191.972 205.799 192.47 205.298 193.152C204.796 193.834 204.494 194.625 204.391 195.525C204.307 196.418 204.44 197.346 204.791 198.308C205.133 199.25 205.624 200.037 206.262 200.667C206.92 201.29 207.66 201.702 208.482 201.902C209.304 202.103 210.147 202.046 211.009 201.732ZM226.373 180.986C227.977 180.402 229.302 180.363 230.348 180.867C231.387 181.352 232.25 182.162 232.935 183.297L232.326 183.212L232.391 182.644C232.464 182.095 232.656 181.469 232.967 180.765C233.272 180.042 233.709 179.372 234.279 178.755C234.862 178.112 235.595 177.63 236.477 177.308C237.92 176.783 239.126 176.696 240.094 177.048C241.082 177.392 241.906 178.034 242.566 178.974C243.219 179.895 243.775 180.986 244.234 182.249L247.036 189.947C247.226 190.468 247.216 190.971 247.007 191.456C246.79 191.921 246.421 192.248 245.9 192.438C245.379 192.628 244.885 192.614 244.421 192.398C243.949 192.161 243.618 191.782 243.428 191.26L240.626 183.563C240.385 182.901 240.09 182.339 239.74 181.876C239.382 181.393 238.935 181.068 238.397 180.9C237.859 180.733 237.2 180.791 236.418 181.076C235.656 181.353 235.063 181.751 234.638 182.268C234.214 182.786 233.96 183.367 233.876 184.01C233.805 184.626 233.89 185.265 234.131 185.927L236.933 193.625C237.122 194.146 237.113 194.649 236.903 195.134C236.686 195.599 236.317 195.926 235.796 196.115C235.275 196.305 234.782 196.292 234.317 196.075C233.845 195.838 233.514 195.459 233.324 194.938L230.523 187.24C230.282 186.578 229.986 186.016 229.636 185.553C229.279 185.07 228.831 184.745 228.294 184.578C227.756 184.41 227.096 184.469 226.314 184.753C225.552 185.031 224.959 185.428 224.535 185.946C224.11 186.464 223.856 187.044 223.773 187.688C223.702 188.304 223.787 188.942 224.027 189.604L226.829 197.302C227.019 197.823 227.009 198.326 226.8 198.811C226.583 199.276 226.214 199.603 225.693 199.793C225.171 199.983 224.678 199.969 224.214 199.752C223.741 199.516 223.41 199.137 223.221 198.615L218.701 186.196C218.511 185.675 218.524 185.182 218.741 184.717C218.951 184.232 219.316 183.895 219.837 183.705C220.358 183.516 220.855 183.539 221.327 183.776C221.792 183.993 222.119 184.362 222.309 184.883L222.78 186.176L222.296 186.25C222.352 185.843 222.471 185.391 222.654 184.894C222.828 184.376 223.084 183.863 223.421 183.354C223.758 182.846 224.171 182.389 224.659 181.984C225.14 181.559 225.712 181.227 226.373 180.986ZM254.094 170.896C255.698 170.313 257.023 170.273 258.069 170.778C259.108 171.262 259.971 172.072 260.656 173.207L260.047 173.123L260.112 172.554C260.185 172.005 260.377 171.379 260.688 170.676C260.993 169.952 261.43 169.282 262 168.666C262.583 168.022 263.316 167.54 264.198 167.219C265.641 166.694 266.847 166.607 267.815 166.958C268.803 167.302 269.627 167.945 270.287 168.885C270.94 169.805 271.496 170.897 271.955 172.16L274.757 179.858C274.947 180.379 274.937 180.882 274.728 181.367C274.511 181.832 274.142 182.159 273.621 182.348C273.099 182.538 272.606 182.525 272.142 182.308C271.669 182.071 271.339 181.692 271.149 181.171L268.347 173.473C268.106 172.811 267.811 172.249 267.461 171.786C267.103 171.303 266.656 170.978 266.118 170.811C265.58 170.643 264.921 170.702 264.139 170.986C263.377 171.264 262.784 171.661 262.359 172.179C261.935 172.697 261.681 173.277 261.597 173.921C261.526 174.537 261.611 175.175 261.852 175.837L264.654 183.535C264.843 184.056 264.834 184.559 264.624 185.044C264.407 185.509 264.038 185.836 263.517 186.026C262.996 186.216 262.503 186.202 262.038 185.985C261.566 185.749 261.235 185.37 261.045 184.848L258.243 177.15C258.003 176.489 257.707 175.927 257.357 175.464C257 174.981 256.552 174.656 256.014 174.488C255.477 174.321 254.817 174.379 254.035 174.664C253.273 174.941 252.68 175.338 252.256 175.856C251.831 176.374 251.577 176.955 251.493 177.598C251.423 178.214 251.507 178.853 251.748 179.514L254.55 187.212C254.74 187.734 254.73 188.237 254.52 188.721C254.304 189.186 253.935 189.514 253.414 189.703C252.892 189.893 252.399 189.879 251.934 189.663C251.462 189.426 251.131 189.047 250.942 188.526L246.422 176.107C246.232 175.585 246.245 175.092 246.462 174.628C246.672 174.143 247.037 173.805 247.558 173.616C248.079 173.426 248.576 173.45 249.048 173.686C249.513 173.903 249.84 174.272 250.03 174.793L250.501 176.086L250.017 176.16C250.073 175.754 250.192 175.302 250.374 174.804C250.549 174.287 250.805 173.773 251.142 173.265C251.479 172.756 251.892 172.299 252.38 171.895C252.861 171.47 253.433 171.137 254.094 170.896Z" fill="#602483"/>
</svg>
