<svg width="189" height="429" viewBox="0 0 189 429" fill="none" xmlns="http://www.w3.org/2000/svg">
<path d="M27.6331 87.5485C28.7431 87.5296 29.8531 87.6385 30.953 87.2386C31.8531 86.9086 32.003 86.4786 31.5631 85.6986C31.3529 85.3286 31.2033 84.9286 30.9931 84.5586C30.5231 83.7186 30.7931 83.1986 31.7031 83.0986C33.2431 82.9285 34.7831 82.8787 36.2931 83.3685C37.2931 83.6984 37.503 84.1185 36.8831 85.1085C35.4631 87.3485 35.8031 87.8885 38.4831 88.1185C43.5931 88.5585 48.2431 90.1585 52.2331 93.5285C53.5031 94.5985 54.3431 95.9985 55.0531 97.3385C56.7931 100.608 58.6631 103.899 58.7531 107.778C58.7833 108.939 59.5831 109.249 60.4831 109.199C62.5531 109.079 64.623 108.849 66.683 108.648C67.3731 108.579 67.6831 108.038 67.863 107.478C68.393 105.858 68.9831 104.248 69.3331 102.589C70.2831 98.1085 73.1031 95.3285 77.1531 93.5585C79.4231 92.5685 81.8131 92.0585 84.2431 91.6885C86.6231 91.3185 88.9531 90.8085 91.1331 89.7185C91.6031 89.4883 92.1431 89.1985 92.633 89.2185C95.0131 89.3085 95.7531 87.8485 96.0031 85.8485C96.0333 85.6384 96.0333 85.3985 96.1331 85.2285C97.5131 82.9085 96.8131 81.0085 95.1731 79.0885C93.1331 76.7085 92.4031 73.5885 90.9231 70.8785C90.1431 69.4585 90.4831 67.8185 90.9631 66.3385C91.7031 64.0285 91.5831 61.8385 90.5431 59.6685C89.9931 58.5285 90.0431 57.3585 90.203 56.0885C90.833 51.0785 91.333 46.0485 91.843 41.0185C91.9129 40.3285 91.9031 39.6285 92.233 38.9985C93.493 36.5785 93.823 34.0085 93.103 31.3985C91.313 24.9085 91.943 18.4285 92.973 11.9285C93.0531 11.4385 93.0732 10.9985 92.9428 10.5185C92.2927 8.1685 93.8728 4.75847 95.9627 3.63849C99.5427 1.70847 103.553 1.19848 107.403 0.258475C110.203 -0.431515 110.623 0.247126 111.403 2.44847C111.723 3.34849 111.743 4.57846 112.883 4.96847C114.623 5.56847 116.313 6.57849 118.223 6.35848C119.943 6.15855 121.233 6.62833 122.283 7.98847C122.703 8.52849 123.223 9.00849 123.753 9.44847C124.933 10.4385 125.693 11.6185 126.103 13.1485C126.763 15.6285 127.903 17.9585 129.293 20.1085C130.683 22.2585 131.393 24.5385 131.083 27.0585C130.503 31.8685 130.583 36.7785 129.443 41.4885C128.213 46.5885 128.083 51.7685 127.613 56.9285C127.493 58.2185 127.663 59.4885 127.973 60.7285C128.653 63.4685 128.213 66.0685 126.313 68.0585C124.383 70.0885 124.993 72.0485 125.863 74.0585C126.323 75.1385 126.973 76.0785 126.713 77.3485C126.633 77.7185 126.813 78.2185 127.033 78.5685C129.253 82.0685 129.243 86.1285 129.433 89.9885C129.573 92.7885 130.153 94.6885 132.843 95.6485C132.893 95.6674 132.933 95.7086 132.963 95.7585C135.153 98.7485 138.523 100.438 141.033 103.089C142.703 104.839 143.843 106.818 144.423 109.149C144.513 109.509 144.523 109.918 144.703 110.228C146.303 112.988 145.923 115.798 145.223 118.728C144.703 120.888 144.763 123.188 144.233 125.349C141.583 136.249 138.323 146.898 131.693 156.198C130.053 158.498 128.793 161.049 127.503 163.559C126.383 165.739 124.873 167.408 122.303 167.878C121.053 168.109 120.113 168.908 119.343 169.918C118.853 170.548 118.923 171.188 118.913 171.969C118.902 174.688 120.493 176.679 121.663 178.879C122.523 180.499 122.693 182.339 123.083 184.108C123.403 185.568 123.673 187.038 124.103 188.458C125.023 191.488 126.133 194.339 126.223 197.689C126.303 201.009 126.973 204.439 127.613 207.788C128.573 212.809 129.113 217.849 128.353 223.019C127.893 226.159 128.143 229.399 127.943 232.589C127.783 235.249 127.943 237.908 127.653 240.579C127.463 242.318 127.503 244.089 127.813 245.839C128.283 248.488 128.093 251.158 127.843 253.798C127.363 258.798 127.683 263.809 127.343 268.819C127.103 272.429 127.723 276.059 127.743 279.668C127.762 283.598 127.343 287.539 127.093 291.469C126.963 293.539 126.573 295.619 126.683 297.679C126.893 301.339 125.033 303.458 121.963 304.879C121.773 304.968 121.563 305.018 121.353 305.078C119.093 305.738 117.503 306.828 117.733 309.588C117.863 311.098 117.063 312.388 116.163 313.658C115.083 315.188 115.033 317.178 114.453 318.948C112.503 324.868 110.473 330.768 108.713 336.749C107.393 341.208 107.783 345.798 108.473 350.348C109.093 354.378 109.633 358.418 109.873 362.499C110.023 365.058 110.313 367.628 110.713 370.158C111.063 372.368 110.273 374.088 108.663 375.388C104.733 378.548 100.243 379.338 95.4031 378.088C93.8131 377.678 92.5331 376.689 91.6132 375.299C91.2632 374.769 90.9231 374.368 90.4131 375.029C88.2931 377.779 85.3131 377.849 82.2731 377.599C80.0732 377.419 77.9931 376.729 76.1431 375.469C73.3331 373.559 72.2031 369.779 73.3331 366.569C74.0732 364.479 75.0032 362.479 75.3331 360.219C75.5433 358.759 76.6331 357.469 77.1731 356.019C77.7932 354.349 78.3631 352.629 79.5131 351.179C79.783 350.829 79.9831 350.239 79.9032 349.819C79.1031 345.659 79.9432 341.339 78.3531 337.219C75.8232 330.649 74.6131 323.669 72.4531 316.969C72.0531 315.739 71.5131 314.589 70.8931 313.479C70.2031 312.259 69.5931 310.989 69.5731 309.579C69.5618 308.169 68.7831 307.889 67.6331 307.869C66.3031 307.85 64.9532 308.028 63.6531 307.699C61.1931 307.089 59.4231 305.269 57.3631 303.979C56.9531 303.729 57.0033 303.239 56.9831 302.809C56.773 297.429 56.3031 292.049 56.4032 286.679C56.673 272.919 55.7731 259.199 55.6231 245.449C55.5332 237.889 55.2531 230.289 54.3031 222.799C53.3231 215.119 54.1331 207.549 54.9131 200.029C55.6731 192.709 56.4431 185.329 58.2931 178.119C59.2631 174.339 60.2631 170.569 61.4331 166.849C62.0131 165.009 61.4932 163.129 61.9331 161.299C62.113 160.569 61.4131 160.619 60.9531 160.679C58.0331 161.059 55.2332 160.369 52.4131 159.799C49.4932 159.199 47.3231 157.439 45.4831 155.219C44.3531 153.869 43.1832 152.529 42.2631 151.039C40.3231 147.889 37.4031 145.789 34.4131 143.889C32.2931 142.539 29.8031 141.719 27.4031 140.899C26.1531 140.469 24.7631 141.038 23.4631 141.258C22.6131 141.408 22.2831 141.258 22.3431 140.318C22.7033 135.338 22.5533 130.298 24.2732 125.488C24.5831 124.618 24.3332 124.198 23.3832 124.108C21.2431 123.908 19.3031 122.998 17.3331 122.238C15.9431 121.708 15.3932 120.108 14.9431 118.928C13.6231 115.468 10.7132 112.978 7.07313 113.198C3.85312 113.398 1.85315 111.898 0.293149 109.338C-0.236854 108.478 -0.0470121 108.138 0.85312 107.868C2.11314 107.498 3.39316 107.588 4.66316 107.619C5.65313 107.637 6.10316 107.289 6.22316 106.289C6.59317 103.269 7.27314 100.259 8.34313 97.4585C10.0632 92.9886 13.5932 90.1985 18.1831 88.7785C21.2732 87.8285 24.4431 87.5585 27.6532 87.4885L27.6331 87.5485ZM34.8631 114.899C34.8132 115.009 34.7731 115.129 34.7232 115.238C35.5932 115.978 36.4132 116.808 37.3532 117.448C40.9432 119.878 44.0532 122.868 47.1932 125.828C47.9032 126.498 48.6232 126.808 49.5832 126.878C51.7732 127.038 53.8932 127.638 55.0832 129.628C56.1632 131.438 58.0532 131.568 59.5932 132.458C59.5932 132.158 59.5033 131.958 59.363 131.818C57.2731 129.748 56.8331 127.208 58.1031 124.428C60.0531 120.178 59.843 119.758 55.2531 118.558C55.0429 118.508 54.8331 118.488 54.6231 118.439C52.383 117.979 50.1331 117.549 47.9031 117.039C47.3931 116.919 46.3931 116.899 46.6031 116.189C47.1331 114.449 45.9331 114.959 45.1731 114.929C44.1131 114.888 43.043 114.91 41.9731 114.91H34.8531L34.8631 114.899ZM94.5131 309.729C93.4131 311.789 92.5731 313.839 92.6831 316.219C92.9231 321.389 92.1031 326.519 91.8431 331.679C91.693 334.749 91.263 337.879 92.1832 340.889C92.7132 342.629 93.2132 344.349 93.3232 346.169C93.3534 346.639 93.2332 347.279 93.9832 347.399C94.4632 346.899 94.4432 346.299 94.4132 345.719C94.3331 344.199 94.6132 342.749 95.1332 341.339C96.0632 338.798 96.3032 336.149 96.3232 333.489C96.3633 327.299 95.2532 321.199 94.9332 315.029C94.8432 313.289 95.0833 311.509 94.5232 309.738L94.5131 309.729Z" fill="#602483"/>
<path d="M47.584 390.504C48.0747 390.504 48.544 390.696 48.992 391.08C49.44 391.443 49.664 391.944 49.664 392.584C49.664 392.776 49.632 392.989 49.568 393.224L43.264 411.784C43.136 412.168 42.9013 412.467 42.56 412.68C42.24 412.872 41.8987 412.979 41.536 413C41.1733 413 40.8107 412.893 40.448 412.68C40.1067 412.467 39.84 412.157 39.648 411.752L34.912 401L35.2 401.192L30.528 411.752C30.336 412.157 30.0587 412.467 29.696 412.68C29.3547 412.893 29.0027 413 28.64 413C28.2987 412.979 27.9573 412.872 27.616 412.68C27.2747 412.467 27.04 412.168 26.912 411.784L20.608 393.224C20.544 392.989 20.512 392.776 20.512 392.584C20.512 391.944 20.736 391.443 21.184 391.08C21.6533 390.696 22.1333 390.504 22.624 390.504C23.0293 390.504 23.4027 390.611 23.744 390.824C24.1067 391.037 24.352 391.347 24.48 391.752L29.568 407.176L28.864 407.144L33.408 396.232C33.5787 395.848 33.824 395.549 34.144 395.336C34.464 395.101 34.8267 394.995 35.232 395.016C35.6373 394.995 36 395.101 36.32 395.336C36.64 395.549 36.8747 395.848 37.024 396.232L41.184 406.664L40.672 406.984L45.696 391.752C45.824 391.347 46.0693 391.037 46.432 390.824C46.7947 390.611 47.1787 390.504 47.584 390.504ZM59.8628 413.32C58.0494 413.32 56.4708 412.947 55.1268 412.2C53.8041 411.432 52.7801 410.397 52.0548 409.096C51.3508 407.795 50.9988 406.323 50.9988 404.68C50.9988 402.76 51.3828 401.128 52.1508 399.784C52.9401 398.419 53.9641 397.373 55.2228 396.648C56.4814 395.923 57.8148 395.56 59.2228 395.56C60.3108 395.56 61.3348 395.784 62.2948 396.232C63.2761 396.68 64.1401 397.299 64.8868 398.088C65.6334 398.856 66.2201 399.752 66.6468 400.776C67.0948 401.8 67.3188 402.888 67.3188 404.04C67.2974 404.552 67.0948 404.968 66.7108 405.288C66.3268 405.608 65.8788 405.768 65.3668 405.768H53.1428L52.1828 402.568H63.9268L63.2228 403.208V402.344C63.1801 401.725 62.9561 401.171 62.5508 400.68C62.1668 400.189 61.6761 399.805 61.0788 399.528C60.5028 399.229 59.8841 399.08 59.2228 399.08C58.5828 399.08 57.9854 399.165 57.4308 399.336C56.8761 399.507 56.3961 399.795 55.9908 400.2C55.5854 400.605 55.2654 401.149 55.0308 401.832C54.7961 402.515 54.6788 403.379 54.6788 404.424C54.6788 405.576 54.9134 406.557 55.3828 407.368C55.8734 408.157 56.4921 408.765 57.2388 409.192C58.0068 409.597 58.8174 409.8 59.6708 409.8C60.4601 409.8 61.0894 409.736 61.5588 409.608C62.0281 409.48 62.4014 409.331 62.6788 409.16C62.9774 408.968 63.2441 408.808 63.4788 408.68C63.8628 408.488 64.2254 408.392 64.5668 408.392C65.0361 408.392 65.4201 408.552 65.7188 408.872C66.0388 409.192 66.1988 409.565 66.1988 409.992C66.1988 410.568 65.9001 411.091 65.3028 411.56C64.7481 412.029 63.9694 412.445 62.9668 412.808C61.9641 413.149 60.9294 413.32 59.8628 413.32ZM79.6658 395.56C81.3724 395.56 82.6311 395.976 83.4418 396.808C84.2524 397.619 84.7858 398.675 85.0417 399.976L84.4978 399.688L84.7537 399.176C85.0098 398.685 85.4044 398.163 85.9378 397.608C86.4711 397.032 87.1111 396.552 87.8578 396.168C88.6258 395.763 89.4791 395.56 90.4178 395.56C91.9538 395.56 93.1164 395.891 93.9058 396.552C94.7164 397.213 95.2711 398.099 95.5698 399.208C95.8684 400.296 96.0178 401.512 96.0178 402.856V411.048C96.0178 411.603 95.8364 412.072 95.4738 412.456C95.1111 412.819 94.6524 413 94.0978 413C93.5431 413 93.0844 412.819 92.7218 412.456C92.3591 412.072 92.1778 411.603 92.1778 411.048V402.856C92.1778 402.152 92.0924 401.523 91.9218 400.968C91.7511 400.392 91.4418 399.933 90.9938 399.592C90.5458 399.251 89.9058 399.08 89.0738 399.08C88.2631 399.08 87.5698 399.251 86.9938 399.592C86.4178 399.933 85.9804 400.392 85.6818 400.968C85.4044 401.523 85.2658 402.152 85.2658 402.856V411.048C85.2658 411.603 85.0844 412.072 84.7218 412.456C84.3591 412.819 83.9004 413 83.3458 413C82.7911 413 82.3324 412.819 81.9698 412.456C81.6071 412.072 81.4258 411.603 81.4258 411.048V402.856C81.4258 402.152 81.3404 401.523 81.1698 400.968C80.9991 400.392 80.6898 399.933 80.2418 399.592C79.7938 399.251 79.1538 399.08 78.3218 399.08C77.5111 399.08 76.8178 399.251 76.2418 399.592C75.6658 399.933 75.2284 400.392 74.9298 400.968C74.6524 401.523 74.5138 402.152 74.5138 402.856V411.048C74.5138 411.603 74.3324 412.072 73.9698 412.456C73.6071 412.819 73.1484 413 72.5938 413C72.0391 413 71.5804 412.819 71.2178 412.456C70.8551 412.072 70.6738 411.603 70.6738 411.048V397.832C70.6738 397.277 70.8551 396.819 71.2178 396.456C71.5804 396.072 72.0391 395.88 72.5938 395.88C73.1484 395.88 73.6071 396.072 73.9698 396.456C74.3324 396.819 74.5138 397.277 74.5138 397.832V399.208L74.0338 399.112C74.2258 398.749 74.4924 398.365 74.8338 397.96C75.1751 397.533 75.5911 397.139 76.0818 396.776C76.5724 396.413 77.1164 396.125 77.7138 395.912C78.3111 395.677 78.9618 395.56 79.6658 395.56ZM116.782 404.456C116.782 406.205 116.387 407.752 115.598 409.096C114.83 410.419 113.784 411.453 112.462 412.2C111.16 412.947 109.699 413.32 108.078 413.32C106.456 413.32 104.984 412.947 103.662 412.2C102.36 411.453 101.315 410.419 100.526 409.096C99.7578 407.752 99.3738 406.205 99.3738 404.456C99.3738 402.707 99.7578 401.171 100.526 399.848C101.315 398.504 102.36 397.459 103.662 396.712C104.984 395.944 106.456 395.56 108.078 395.56C109.699 395.56 111.16 395.944 112.462 396.712C113.784 397.459 114.83 398.504 115.598 399.848C116.387 401.171 116.782 402.707 116.782 404.456ZM112.942 404.456C112.942 403.368 112.718 402.429 112.27 401.64C111.843 400.829 111.256 400.2 110.51 399.752C109.784 399.304 108.974 399.08 108.078 399.08C107.182 399.08 106.36 399.304 105.614 399.752C104.888 400.2 104.302 400.829 103.854 401.64C103.427 402.429 103.214 403.368 103.214 404.456C103.214 405.523 103.427 406.461 103.854 407.272C104.302 408.061 104.888 408.68 105.614 409.128C106.36 409.576 107.182 409.8 108.078 409.8C108.974 409.8 109.784 409.576 110.51 409.128C111.256 408.68 111.843 408.061 112.27 407.272C112.718 406.461 112.942 405.523 112.942 404.456ZM120.335 396.2H127.919C128.431 396.2 128.857 396.371 129.199 396.712C129.54 397.053 129.711 397.48 129.711 397.992C129.711 398.483 129.54 398.899 129.199 399.24C128.857 399.56 128.431 399.72 127.919 399.72H120.335C119.823 399.72 119.396 399.549 119.055 399.208C118.713 398.867 118.543 398.44 118.543 397.928C118.543 397.437 118.713 397.032 119.055 396.712C119.396 396.371 119.823 396.2 120.335 396.2ZM123.759 392.2C124.313 392.2 124.761 392.392 125.103 392.776C125.465 393.139 125.647 393.597 125.647 394.152V408.392C125.647 408.691 125.7 408.936 125.807 409.128C125.935 409.32 126.095 409.459 126.286 409.544C126.5 409.629 126.724 409.672 126.959 409.672C127.215 409.672 127.449 409.629 127.663 409.544C127.876 409.437 128.121 409.384 128.399 409.384C128.697 409.384 128.964 409.523 129.199 409.8C129.455 410.077 129.583 410.461 129.583 410.952C129.583 411.549 129.252 412.04 128.591 412.424C127.951 412.808 127.257 413 126.51 413C126.063 413 125.561 412.968 125.007 412.904C124.473 412.819 123.961 412.637 123.471 412.36C123.001 412.061 122.606 411.613 122.286 411.016C121.967 410.419 121.807 409.597 121.807 408.552V394.152C121.807 393.597 121.988 393.139 122.351 392.776C122.735 392.392 123.204 392.2 123.759 392.2ZM136.852 411.048C136.852 411.603 136.671 412.072 136.308 412.456C135.946 412.819 135.487 413 134.932 413C134.378 413 133.919 412.819 133.556 412.456C133.194 412.072 133.012 411.603 133.012 411.048V397.832C133.012 397.277 133.194 396.819 133.556 396.456C133.919 396.072 134.378 395.88 134.932 395.88C135.487 395.88 135.946 396.072 136.308 396.456C136.671 396.819 136.852 397.277 136.852 397.832V411.048ZM134.9 393.8C134.175 393.8 133.663 393.683 133.364 393.448C133.066 393.213 132.916 392.797 132.916 392.2V391.592C132.916 390.973 133.076 390.557 133.396 390.344C133.738 390.109 134.25 389.992 134.932 389.992C135.679 389.992 136.202 390.109 136.5 390.344C136.799 390.579 136.948 390.995 136.948 391.592V392.2C136.948 392.819 136.788 393.245 136.468 393.48C136.148 393.693 135.626 393.8 134.9 393.8ZM157.407 404.456C157.407 406.205 157.012 407.752 156.223 409.096C155.455 410.419 154.409 411.453 153.087 412.2C151.785 412.947 150.324 413.32 148.703 413.32C147.081 413.32 145.609 412.947 144.287 412.2C142.985 411.453 141.94 410.419 141.151 409.096C140.383 407.752 139.999 406.205 139.999 404.456C139.999 402.707 140.383 401.171 141.151 399.848C141.94 398.504 142.985 397.459 144.287 396.712C145.609 395.944 147.081 395.56 148.703 395.56C150.324 395.56 151.785 395.944 153.087 396.712C154.409 397.459 155.455 398.504 156.223 399.848C157.012 401.171 157.407 402.707 157.407 404.456ZM153.567 404.456C153.567 403.368 153.343 402.429 152.895 401.64C152.468 400.829 151.881 400.2 151.135 399.752C150.409 399.304 149.599 399.08 148.703 399.08C147.807 399.08 146.985 399.304 146.239 399.752C145.513 400.2 144.927 400.829 144.479 401.64C144.052 402.429 143.839 403.368 143.839 404.456C143.839 405.523 144.052 406.461 144.479 407.272C144.927 408.061 145.513 408.68 146.239 409.128C146.985 409.576 147.807 409.8 148.703 409.8C149.599 409.8 150.409 409.576 151.135 409.128C151.881 408.68 152.468 408.061 152.895 407.272C153.343 406.461 153.567 405.523 153.567 404.456ZM169.92 395.56C171.498 395.56 172.693 395.891 173.504 396.552C174.336 397.213 174.901 398.099 175.2 399.208C175.52 400.296 175.68 401.512 175.68 402.856V411.048C175.68 411.603 175.498 412.072 175.135 412.456C174.773 412.819 174.314 413 173.76 413C173.205 413 172.746 412.819 172.384 412.456C172.021 412.072 171.84 411.603 171.84 411.048V402.856C171.84 402.152 171.744 401.523 171.552 400.968C171.381 400.392 171.061 399.933 170.592 399.592C170.122 399.251 169.45 399.08 168.576 399.08C167.722 399.08 166.997 399.251 166.4 399.592C165.824 399.933 165.376 400.392 165.056 400.968C164.757 401.523 164.608 402.152 164.608 402.856V411.048C164.608 411.603 164.426 412.072 164.064 412.456C163.701 412.819 163.242 413 162.688 413C162.133 413 161.674 412.819 161.312 412.456C160.949 412.072 160.768 411.603 160.768 411.048V397.832C160.768 397.277 160.949 396.819 161.312 396.456C161.674 396.072 162.133 395.88 162.688 395.88C163.242 395.88 163.701 396.072 164.064 396.456C164.426 396.819 164.608 397.277 164.608 397.832V399.208L164.128 399.112C164.32 398.749 164.597 398.365 164.96 397.96C165.322 397.533 165.749 397.139 166.24 396.776C166.73 396.413 167.285 396.125 167.904 395.912C168.522 395.677 169.194 395.56 169.92 395.56Z" fill="#602483"/>
</svg>
