<svg width="221" height="365" viewBox="0 0 221 365" fill="none" xmlns="http://www.w3.org/2000/svg">
<path d="M35.1433 206.172C33.9833 204.642 32.4133 204.582 30.8833 204.752C27.9433 205.072 25.6333 204.112 23.6433 201.942C22.1633 200.332 20.5233 198.882 19.2933 197.052C17.9833 195.112 15.9533 194.332 13.8433 193.652C11.2033 192.802 8.46329 192.472 5.76331 191.962C4.25331 191.672 2.75329 191.362 1.3433 190.752C-0.226713 190.062 -0.366707 189.532 0.643296 188.192C1.93329 186.482 3.29331 184.832 4.04328 182.772C5.3733 179.112 5.50328 175.332 5.09331 171.512C4.92323 169.952 4.7033 168.382 4.40328 166.842C3.32328 161.332 5.94329 156.852 11.2933 155.132C12.1633 154.852 13.0533 154.602 13.9333 154.342C17.9433 153.142 19.5633 150.982 19.6533 146.772C19.6835 145.262 19.5732 143.742 18.6833 142.492C17.4533 140.752 17.8733 139.232 18.9732 137.672C20.6532 135.302 22.6932 133.252 24.7532 131.242C28.6032 127.492 32.5332 123.812 36.4232 120.112C38.0532 118.562 39.4732 116.872 40.2432 114.702C40.6232 113.652 40.6132 112.862 39.6532 112.052C37.9932 110.642 36.4932 109.032 35.1132 107.332C33.7032 105.592 33.6432 103.562 33.6732 101.492C33.6732 100.912 34.1332 100.552 34.4932 100.192C38.8032 95.9322 43.5332 92.2322 48.7132 89.0622C50.6232 87.8922 52.4632 88.5422 54.3032 88.7224C61.3032 89.4024 68.2832 90.3024 75.2732 90.9824C81.8932 91.6224 88.4932 92.3724 94.9932 93.7624C98.7932 94.5724 102.563 95.5524 106.323 96.5124C111.503 97.8424 116.803 97.7124 122.083 97.8424C126.663 97.9626 131.243 98.1323 135.813 98.5724C136.853 98.6725 137.873 98.8725 138.873 99.2524C140.953 100.052 142.563 99.0823 143.433 96.7824C144.163 94.8524 144.243 92.8524 144.173 90.8424C144.063 87.5924 143.543 84.4024 142.503 81.3224C142.153 80.2924 141.803 79.2624 140.963 78.4724C140.503 78.0424 140.383 77.4024 140.313 76.7924C140.013 73.9224 140.193 71.1424 141.643 68.5324C141.953 67.9824 141.963 67.2724 142.113 66.6424C143.163 62.3024 145.153 58.5324 148.873 55.9024C154.933 51.6324 162.193 53.4224 165.693 59.9524C167.583 63.4824 168.053 67.2324 167.583 71.1424C167.353 73.0624 166.853 74.8824 167.163 76.9224C167.563 79.5524 165.433 83.6624 161.823 84.6424C161.193 84.8125 160.553 85.0224 159.913 85.0924C158.593 85.2322 158.023 86.0424 157.823 87.2424C157.203 91.0424 158.253 94.5124 159.913 97.8624C160.143 98.3324 160.393 98.7924 160.683 99.2324C162.563 102.082 165.873 101.992 167.503 99.0022C170.013 94.3822 171.903 89.4922 173.813 84.6022C175.913 79.2322 178.053 73.8722 179.713 68.3522C180.653 65.2222 181.383 62.0222 182.523 58.9522C185.273 51.5822 188.513 44.4222 191.813 37.2822C193.633 33.3422 195.053 29.2622 196.173 25.0822C196.583 23.5722 196.123 21.9523 195.793 20.4322C195.223 17.8222 194.693 15.2722 195.033 12.5322C195.273 10.6122 194.343 8.68225 194.053 6.74222C193.963 6.11225 193.373 5.09223 194.103 4.89225C194.773 4.70214 194.903 5.86223 195.153 6.47225C195.573 7.48225 195.893 8.52223 196.343 9.81225C196.324 7.37223 195.663 5.27225 195.443 3.12223C195.363 2.38223 195.283 1.64224 195.213 0.902244C195.183 0.60215 195.113 0.232249 195.533 0.17223C195.913 0.112136 196.063 0.462117 196.143 0.742218C196.493 1.96225 196.833 3.18224 197.123 4.41225C197.453 5.80225 197.713 7.20222 198.123 8.58224C197.944 6.15223 197.743 3.73224 197.583 1.30223C197.553 0.832248 197.263 0.0622459 197.963 0.00222697C198.523 -0.0476628 198.573 0.752235 198.703 1.24225C199.293 3.53223 199.443 5.90222 199.753 8.24224C199.843 8.93223 199.933 9.62222 200.063 10.6222C200.643 9.19222 200.703 7.95223 200.943 6.75223C201.263 5.12224 201.513 3.47225 201.823 1.84225C201.903 1.41225 201.913 0.692255 202.523 0.782245C203.063 0.862371 202.973 1.55225 202.993 2.01225C203.123 5.25225 202.673 8.46224 202.333 11.6722C202.214 12.8222 202.314 13.9422 202.352 15.0722C202.452 17.6722 202.152 20.2222 201.302 22.6922C200.782 24.2123 200.952 25.8122 200.682 27.3522C199.612 33.5622 197.972 39.6322 196.422 45.7322C194.752 52.3422 192.862 58.8822 190.792 65.3722C189.832 68.3822 188.372 71.1722 187.152 74.0622C185.492 77.9722 184.442 82.0822 183.332 86.1722C181.742 92.0222 180.712 98.0322 178.192 103.612C176.942 106.392 174.762 108.562 173.362 111.242C169.852 117.952 165.172 123.822 160.282 129.562C156.412 134.112 154.712 139.592 153.662 145.332C153.422 146.662 153.282 148.032 152.932 149.332C152.312 151.652 152.692 153.812 153.652 155.962C158.522 166.852 160.912 178.372 161.242 190.192C161.542 201.122 163.212 211.762 165.872 222.292C167.482 228.662 168.352 235.162 169.542 241.602C171.142 250.232 173.302 258.692 177.122 266.642C180.682 274.062 185.492 280.472 192.622 284.882C196.032 286.992 199.682 288.472 203.592 289.412C208.742 290.662 213.942 290.912 219.192 290.612C219.592 290.593 220.172 290.352 220.372 290.842C220.552 291.282 220.082 291.622 219.792 291.932C217.002 294.932 213.662 297.052 209.572 297.662C204.822 298.372 201.432 301.282 198.082 304.332C196.342 305.922 194.852 307.782 192.952 309.202C192.162 309.792 192.382 310.732 192.512 311.372C192.712 312.412 192.152 312.722 191.502 313.072C188.712 314.572 185.722 315.582 182.652 316.312C178.552 317.282 174.412 317.952 170.182 317.322C169.412 317.203 168.642 317.022 167.882 316.842C167.132 316.662 166.862 316.842 166.952 317.692C167.162 319.642 166.862 319.942 164.922 319.832C163.082 319.732 161.312 319.192 159.562 318.652C157.592 318.042 155.772 317.782 154.062 319.352C152.652 320.642 150.862 320.002 149.262 319.892C144.812 319.562 140.362 319.592 135.912 319.302C133.442 319.143 130.912 319.192 128.562 318.202C127.252 317.652 126.002 316.952 125.272 315.712C124.142 313.772 122.422 313.662 120.512 313.892C120.531 314.022 120.512 314.123 120.562 314.172C120.962 314.592 121.932 314.632 121.782 315.362C121.622 316.122 120.702 315.992 120.102 316.072C119.022 316.212 117.922 316.272 116.832 316.243C114.832 316.182 113.502 314.303 114.092 312.373C114.422 311.293 114.982 310.273 115.252 309.183C115.682 307.493 115.212 307.093 113.552 307.383C111.132 307.803 108.762 307.293 106.412 306.763C105.402 306.532 104.822 306.592 104.782 307.773C104.763 308.453 104.342 308.773 103.682 308.833C103.422 308.851 103.162 308.913 102.902 308.943C100.162 309.272 99.8221 308.973 100.322 306.323C100.532 305.232 100.052 304.783 99.2721 304.103C97.5221 302.542 95.9921 302.973 94.2021 303.943C91.1321 305.603 88.0822 307.343 84.6921 308.343C80.5221 309.573 77.1821 307.793 74.0422 305.373C73.3521 304.843 73.4921 304.033 73.6922 303.293C73.8823 302.583 74.5422 302.583 75.0922 302.573C76.3521 302.533 77.6222 302.503 78.8822 302.573C80.0122 302.623 80.9422 302.303 81.7322 301.523C84.1021 299.193 86.4422 296.833 88.8322 294.523C89.4522 293.923 89.4722 293.463 89.0121 292.733C87.7621 290.723 86.5221 288.713 84.6921 287.163C84.012 286.583 84.3519 286.233 84.8221 285.803C86.4121 284.363 87.6521 282.723 87.8521 280.473C88.052 278.223 86.1521 275.263 84.0421 274.573C83.3121 274.333 83.0621 274.613 83.0621 275.283C83.0621 275.673 83.081 276.073 83.0923 276.463C83.1623 278.173 82.9325 278.403 81.1823 278.353C78.9123 278.293 78.4723 278.763 79.0523 280.963C80.0923 284.883 79.1525 288.173 76.2723 291.023C75.3123 291.973 74.6023 291.873 73.7623 291.004C72.4523 289.644 71.3323 288.134 70.2323 286.614C68.1323 283.704 66.1323 280.734 63.6023 278.154C61.6923 276.204 59.5923 274.644 56.7623 274.374C56.5125 274.355 56.2423 274.254 56.0323 274.104C52.0823 271.294 47.9723 268.694 44.5023 265.264C43.9023 264.674 43.3923 264.024 42.9723 263.304C42.2623 262.064 42.0523 260.754 42.5923 259.404C43.3723 257.444 43.0923 255.644 41.8423 253.964C41.0023 252.844 40.2723 251.644 39.6723 250.374C38.9123 248.754 38.5223 247.084 38.8223 245.284C39.2023 242.954 38.2023 241.024 36.9423 239.184C35.9823 237.774 35.0223 236.364 34.0123 234.984C30.6023 230.354 31.1123 225.594 33.5423 220.784C34.4523 218.994 35.6923 217.384 36.4823 215.524C37.1923 213.844 37.0923 213.564 35.4623 212.804C34.7123 212.454 33.9223 212.184 33.1723 211.824C32.1823 211.334 31.0423 210.774 31.2223 209.484C31.4124 208.144 32.1823 207.044 33.5723 206.574C34.0523 206.414 34.5723 206.334 35.1023 206.204L35.1433 206.172ZM124.443 135.162C124.843 133.102 124.863 130.962 124.983 128.822C125.203 125.072 125.393 121.332 124.883 117.572C124.653 115.862 123.823 114.802 122.243 114.182C120.253 113.392 118.203 112.692 116.343 111.652C113.513 110.072 110.463 109.162 107.383 108.392C101.663 106.972 95.9032 105.682 90.1131 104.542C83.7231 103.292 77.3032 102.172 70.9831 100.572C67.2631 99.6322 63.5532 98.6222 59.8431 97.6322C57.5631 97.0222 55.2932 96.4022 53.0132 95.8022C52.4832 95.662 52.0332 95.6522 51.6732 96.2522C50.2631 98.5522 48.3132 100.372 46.2932 102.132C45.7031 102.642 45.1631 103.162 45.0232 104.042C44.6031 106.632 44.1031 109.212 43.6132 111.792C43.4729 112.522 43.5829 113.152 43.9632 113.802C46.1532 117.512 47.7931 121.462 49.0631 125.562C50.1332 129.022 51.7732 132.202 53.9431 135.092C57.8432 140.302 62.7731 144.392 68.2031 147.902C75.6532 152.722 83.7031 156.282 92.0132 159.332C96.6532 161.032 101.403 162.362 106.083 163.902C107.803 164.472 109.153 164.042 110.283 162.672C111.413 161.302 112.213 159.752 112.873 158.132C114.283 154.702 115.503 151.182 117.663 148.112C118.693 146.652 119.653 145.132 120.553 143.582C122.103 140.922 124.163 138.482 124.433 135.172L124.443 135.162ZM42.1333 106.132C42.3034 105.392 42.2433 104.652 42.1734 103.912C42.1133 103.232 40.5833 101.992 39.8833 102.122C38.9633 102.302 38.9533 103.162 38.8733 103.872C38.7033 105.332 39.1534 106.622 40.1433 107.712C40.4835 108.082 40.7233 108.762 41.2834 108.642C41.6733 108.562 41.5634 107.882 41.7133 107.482C41.8834 107.042 42.0032 106.572 42.1433 106.122L42.1333 106.132Z" fill="#602483"/>
<path d="M77.96 349.32C76.3387 349.32 74.824 349.021 73.416 348.424C72.008 347.827 70.7707 347.005 69.704 345.96C68.6373 344.893 67.7947 343.667 67.176 342.28C66.5787 340.893 66.28 339.4 66.28 337.8C66.28 336.2 66.5787 334.707 67.176 333.32C67.7947 331.933 68.6373 330.717 69.704 329.672C70.7707 328.605 72.008 327.773 73.416 327.176C74.824 326.579 76.3387 326.28 77.96 326.28C78.9627 326.28 79.9333 326.387 80.872 326.6C81.8107 326.813 82.6747 327.133 83.464 327.56C83.784 327.731 84.0187 327.965 84.168 328.264C84.3387 328.541 84.424 328.829 84.424 329.128C84.424 329.64 84.2533 330.099 83.912 330.504C83.5707 330.909 83.1333 331.112 82.6 331.112C82.4293 331.112 82.248 331.091 82.056 331.048C81.8853 331.005 81.7147 330.941 81.544 330.856C81.0107 330.621 80.4453 330.44 79.848 330.312C79.2507 330.184 78.6213 330.12 77.96 330.12C76.5733 330.12 75.304 330.472 74.152 331.176C73.0213 331.859 72.1147 332.787 71.432 333.96C70.7707 335.112 70.44 336.392 70.44 337.8C70.44 339.187 70.7707 340.467 71.432 341.64C72.1147 342.813 73.0213 343.752 74.152 344.456C75.304 345.139 76.5733 345.48 77.96 345.48C78.6 345.48 79.304 345.416 80.072 345.288C80.84 345.16 81.4693 344.989 81.96 344.776L81.672 345.736V340.264L82.216 340.744H78.664C78.1093 340.744 77.64 340.563 77.256 340.2C76.8933 339.837 76.712 339.379 76.712 338.824C76.712 338.269 76.8933 337.811 77.256 337.448C77.64 337.085 78.1093 336.904 78.664 336.904H83.912C84.4667 336.904 84.9253 337.096 85.288 337.48C85.6507 337.843 85.832 338.301 85.832 338.856V345.64C85.832 346.067 85.7253 346.419 85.512 346.696C85.32 346.973 85.096 347.197 84.84 347.368C83.8587 347.965 82.7813 348.445 81.608 348.808C80.456 349.149 79.24 349.32 77.96 349.32ZM103.815 331.56C104.369 331.56 104.828 331.741 105.191 332.104C105.553 332.467 105.735 332.936 105.735 333.512V347.048C105.735 347.603 105.553 348.072 105.191 348.456C104.828 348.819 104.369 349 103.815 349C103.26 349 102.801 348.819 102.439 348.456C102.076 348.072 101.895 347.603 101.895 347.048V345.48L102.599 345.768C102.599 346.045 102.449 346.387 102.151 346.792C101.852 347.176 101.447 347.56 100.935 347.944C100.423 348.328 99.8148 348.659 99.1108 348.936C98.4281 349.192 97.6814 349.32 96.8708 349.32C95.3988 349.32 94.0654 348.947 92.8708 348.2C91.6761 347.432 90.7268 346.387 90.0228 345.064C89.3401 343.72 88.9988 342.184 88.9988 340.456C88.9988 338.707 89.3401 337.171 90.0228 335.848C90.7268 334.504 91.6654 333.459 92.8388 332.712C94.0121 331.944 95.3134 331.56 96.7428 331.56C97.6601 331.56 98.5028 331.699 99.2708 331.976C100.039 332.253 100.7 332.605 101.255 333.032C101.831 333.459 102.268 333.896 102.567 334.344C102.887 334.771 103.047 335.133 103.047 335.432L101.895 335.848V333.512C101.895 332.957 102.076 332.499 102.439 332.136C102.801 331.752 103.26 331.56 103.815 331.56ZM97.3508 345.8C98.2894 345.8 99.1108 345.565 99.8148 345.096C100.519 344.627 101.063 343.987 101.447 343.176C101.852 342.365 102.055 341.459 102.055 340.456C102.055 339.432 101.852 338.515 101.447 337.704C101.063 336.893 100.519 336.253 99.8148 335.784C99.1108 335.315 98.2894 335.08 97.3508 335.08C96.4334 335.08 95.6228 335.315 94.9188 335.784C94.2148 336.253 93.6601 336.893 93.2548 337.704C92.8708 338.515 92.6788 339.432 92.6788 340.456C92.6788 341.459 92.8708 342.365 93.2548 343.176C93.6601 343.987 94.2148 344.627 94.9188 345.096C95.6228 345.565 96.4334 345.8 97.3508 345.8ZM114.053 347.048C114.053 347.603 113.861 348.072 113.477 348.456C113.114 348.819 112.655 349 112.101 349C111.567 349 111.119 348.819 110.757 348.456C110.394 348.072 110.213 347.603 110.213 347.048V327.272C110.213 326.717 110.394 326.259 110.757 325.896C111.141 325.512 111.61 325.32 112.165 325.32C112.719 325.32 113.167 325.512 113.509 325.896C113.871 326.259 114.053 326.717 114.053 327.272V347.048ZM126.269 349.32C124.456 349.32 122.877 348.947 121.533 348.2C120.21 347.432 119.186 346.397 118.461 345.096C117.757 343.795 117.405 342.323 117.405 340.68C117.405 338.76 117.789 337.128 118.557 335.784C119.346 334.419 120.37 333.373 121.629 332.648C122.888 331.923 124.221 331.56 125.629 331.56C126.717 331.56 127.741 331.784 128.701 332.232C129.682 332.68 130.546 333.299 131.293 334.088C132.04 334.856 132.626 335.752 133.053 336.776C133.501 337.8 133.725 338.888 133.725 340.04C133.704 340.552 133.501 340.968 133.117 341.288C132.733 341.608 132.285 341.768 131.773 341.768H119.549L118.589 338.568H130.333L129.629 339.208V338.344C129.586 337.725 129.362 337.171 128.957 336.68C128.573 336.189 128.082 335.805 127.485 335.528C126.909 335.229 126.29 335.08 125.629 335.08C124.989 335.08 124.392 335.165 123.837 335.336C123.282 335.507 122.802 335.795 122.397 336.2C121.992 336.605 121.672 337.149 121.437 337.832C121.202 338.515 121.085 339.379 121.085 340.424C121.085 341.576 121.32 342.557 121.789 343.368C122.28 344.157 122.898 344.765 123.645 345.192C124.413 345.597 125.224 345.8 126.077 345.8C126.866 345.8 127.496 345.736 127.965 345.608C128.434 345.48 128.808 345.331 129.085 345.16C129.384 344.968 129.65 344.808 129.885 344.68C130.269 344.488 130.632 344.392 130.973 344.392C131.442 344.392 131.826 344.552 132.125 344.872C132.445 345.192 132.605 345.565 132.605 345.992C132.605 346.568 132.306 347.091 131.709 347.56C131.154 348.029 130.376 348.445 129.373 348.808C128.37 349.149 127.336 349.32 126.269 349.32ZM139 349C138.445 349 137.987 348.819 137.624 348.456C137.261 348.072 137.08 347.603 137.08 347.048V333.832C137.08 333.277 137.261 332.819 137.624 332.456C137.987 332.072 138.445 331.88 139 331.88C139.555 331.88 140.013 332.072 140.376 332.456C140.739 332.819 140.92 333.277 140.92 333.832V336.84L140.696 334.696C140.931 334.184 141.229 333.736 141.592 333.352C141.976 332.947 142.403 332.616 142.872 332.36C143.341 332.083 143.843 331.88 144.376 331.752C144.909 331.624 145.443 331.56 145.976 331.56C146.616 331.56 147.149 331.741 147.576 332.104C148.024 332.467 148.248 332.893 148.248 333.384C148.248 334.088 148.067 334.6 147.704 334.92C147.341 335.219 146.947 335.368 146.52 335.368C146.115 335.368 145.741 335.293 145.4 335.144C145.08 334.995 144.707 334.92 144.28 334.92C143.896 334.92 143.501 335.016 143.096 335.208C142.712 335.379 142.349 335.656 142.008 336.04C141.688 336.424 141.421 336.904 141.208 337.48C141.016 338.035 140.92 338.696 140.92 339.464V347.048C140.92 347.603 140.739 348.072 140.376 348.456C140.013 348.819 139.555 349 139 349ZM154.571 347.048C154.571 347.603 154.39 348.072 154.027 348.456C153.664 348.819 153.206 349 152.651 349C152.096 349 151.638 348.819 151.275 348.456C150.912 348.072 150.731 347.603 150.731 347.048V333.832C150.731 333.277 150.912 332.819 151.275 332.456C151.638 332.072 152.096 331.88 152.651 331.88C153.206 331.88 153.664 332.072 154.027 332.456C154.39 332.819 154.571 333.277 154.571 333.832V347.048ZM152.619 329.8C151.894 329.8 151.382 329.683 151.083 329.448C150.784 329.213 150.635 328.797 150.635 328.2V327.592C150.635 326.973 150.795 326.557 151.115 326.344C151.456 326.109 151.968 325.992 152.651 325.992C153.398 325.992 153.92 326.109 154.219 326.344C154.518 326.579 154.667 326.995 154.667 327.592V328.2C154.667 328.819 154.507 329.245 154.187 329.48C153.867 329.693 153.344 329.8 152.619 329.8ZM166.582 349.32C164.768 349.32 163.19 348.947 161.846 348.2C160.523 347.432 159.499 346.397 158.774 345.096C158.07 343.795 157.718 342.323 157.718 340.68C157.718 338.76 158.102 337.128 158.87 335.784C159.659 334.419 160.683 333.373 161.942 332.648C163.2 331.923 164.534 331.56 165.942 331.56C167.03 331.56 168.054 331.784 169.014 332.232C169.995 332.68 170.859 333.299 171.606 334.088C172.352 334.856 172.939 335.752 173.366 336.776C173.814 337.8 174.038 338.888 174.038 340.04C174.016 340.552 173.814 340.968 173.43 341.288C173.046 341.608 172.598 341.768 172.086 341.768H159.862L158.902 338.568H170.646L169.942 339.208V338.344C169.899 337.725 169.675 337.171 169.27 336.68C168.886 336.189 168.395 335.805 167.798 335.528C167.222 335.229 166.603 335.08 165.942 335.08C165.302 335.08 164.704 335.165 164.15 335.336C163.595 335.507 163.115 335.795 162.71 336.2C162.304 336.605 161.984 337.149 161.75 337.832C161.515 338.515 161.398 339.379 161.398 340.424C161.398 341.576 161.632 342.557 162.102 343.368C162.592 344.157 163.211 344.765 163.958 345.192C164.726 345.597 165.536 345.8 166.39 345.8C167.179 345.8 167.808 345.736 168.278 345.608C168.747 345.48 169.12 345.331 169.398 345.16C169.696 344.968 169.963 344.808 170.198 344.68C170.582 344.488 170.944 344.392 171.286 344.392C171.755 344.392 172.139 344.552 172.438 344.872C172.758 345.192 172.918 345.565 172.918 345.992C172.918 346.568 172.619 347.091 172.022 347.56C171.467 348.029 170.688 348.445 169.686 348.808C168.683 349.149 167.648 349.32 166.582 349.32Z" fill="#602483"/>
</svg>
